#!OML:ASF E:\Steps\Project 1\Capture day 1\Session 2\Subject.ASF
:FULLY-SPECIFIED
:DEGREES
379
root 7.25884 15.9058 21.5507 -157.174 -1.15736 178.467
lowerback -23.1258 -3.07401 -6.26012
upperback 1.03256 -2.55898 0.395714
thorax 14.5584 -1.72461 3.12258
lowerneck -2.7283 -3.44267 -1.24008
upperneck 14.9335 -4.59542 5.24532
head 5.08067 -1.71046 1.61621
rclavicle 1.73937e-014 3.97569e-016
rhumerus -44.9777 -27.5919 -68.1645
rradius 25.9693
rwrist 5.30128
rhand -7.84738 -55.0229
rfingers 7.12502
rthumb 18.0557 -84.2048
lclavicle 1.73937e-014 3.97569e-016
lhumerus -26.8058 2.07458 80.0393
lradius 31.2901
lwrist -0.720238
lhand -20.2816 -11.7082
lfingers 7.12502
lthumb 6.06794 18.1849
rfemur -44.148 5.04601 11.8066
rtibia 8.573
rfoot -10.0172 -13.0961
rtoes -45.4729
lfemur -13.9159 -10.8623 -22.3144
ltibia 16.9841
lfoot -16.2474 -2.32105
ltoes -24.9782
380
root 7.28484 15.8885 21.4183 -157.272 -1.21673 178.489
lowerback -23.3632 -3.1326 -6.21687
upperback 1.12406 -2.6295 0.432779
thorax 14.8129 -1.76011 3.10655
lowerneck -3.08599 -3.43456 -1.1982
upperneck 15.2297 -4.58797 5.16758
head 5.23035 -1.6958 1.58023
rclavicle 7.45443e-015 5.1684e-015
rhumerus -45.1522 -28.1275 -67.7478
rradius 25.5411
rwrist 6.05497
rhand -7.48785 -54.5774
rfingers 7.12502
rthumb 18.4016 -83.727
lclavicle 7.45443e-015 5.1684e-015
lhumerus -26.8121 2.07549 80.0499
lradius 31.0953
lwrist -0.565159
lhand -20.7825 -12.6016
lfingers 7.12502
lthumb 5.58439 17.3048
rfemur -43.6298 5.07046 12.2092
rtibia 8.59656
rfoot -9.11609 -12.8865
rtoes -47.2501
lfemur -13.4792 -11.0357 -22.255
ltibia 17.4358
lfoot -16.3399 -2.49494
ltoes -24.16
381
root 7.31498 15.8736 21.288 -157.355 -1.27541 178.472
lowerback -23.531 -3.2095 -6.19329
upperback 1.19015 -2.72261 0.440723
thorax 14.9992 -1.80427 3.0617
lowerneck -3.34642 -3.37271 -1.20101
upperneck 15.4103 -4.50732 5.12357
head 5.32715 -1.65182 1.56779
rclavicle -8.34896e-015 -2.78299e-015
rhumerus -45.3508 -28.6498 -67.4255
rradius 25.2093
rwrist 6.71173
rhand -7.38829 -54.3426
rfingers 7.12502
rthumb 18.4973 -83.4832
lclavicle -8.34896e-015 -2.78299e-015
lhumerus -26.7775 2.19334 80.0189
lradius 31.0216
lwrist -0.368443
lhand -21.2682 -12.2029
lfingers 7.12502
lthumb 5.11539 17.7154
rfemur -43.2314 4.93113 12.6997
rtibia 8.92213
rfoot -8.05375 -12.3907
rtoes -47.9887
lfemur -13.1596 -11.0378 -22.1995
ltibia 18.0336
lfoot -16.3957 -2.69169
ltoes -24.4298
382
root 7.34673 15.8639 21.1594 -157.487 -1.46155 178.373
lowerback -24.0992 -3.48508 -6.41653
upperback 1.53666 -2.9779 0.609224
thorax 15.8038 -1.96169 3.26538
lowerneck -3.40432 -3.26145 -1.46468
upperneck 15.1139 -4.35138 5.06131
head 5.24396 -1.61613 1.59862
rclavicle 2.66371e-014 -8.54774e-015
rhumerus -44.8405 -29.1591 -67.1968
rradius 24.7581
rwrist 7.40013
rhand -7.16213 -54.2038
rfingers 7.12502
rthumb 18.7149 -83.3235
lclavicle 2.66371e-014 -8.54774e-015
lhumerus -26.3782 2.79289 80.0649
lradius 31.0688
lwrist -0.725197
lhand -21.5797 -7.10988
lfingers 7.12502
lthumb 4.81464 22.8154
rfemur -42.8096 4.8509 12.9552
rtibia 9.42391
rfoot -7.2078 -11.9181
rtoes -46.9678
lfemur -12.8389 -11.0066 -22.2008
ltibia 18.6532
lfoot -16.3493 -2.69299
ltoes -28.0955
383
root 7.37664 15.8551 21.0287 -157.598 -1.59295 178.293
lowerback -23.7798 -3.5741 -6.36302
upperback 1.28583 -3.14866 0.550937
thorax 15.3252 -2.02074 3.11725
lowerneck -3.30659 -3.21336 -1.41941
upperneck 15.4721 -4.26345 5.04923
head 5.33397 -1.55002 1.59548
rclavicle 1.16289e-014 2.38542e-014
rhumerus -45.7344 -30.1813 -66.1348
rradius 24.2113
rwrist 8.82245
rhand -6.75034 -53.4683
rfingers 7.12502
rthumb 19.1109 -82.5494
lclavicle 1.16289e-014 2.38542e-014
lhumerus -27.0902 2.6729 79.8435
lradius 30.9989
lwrist -0.0628975
lhand -20.4216 -12.8128
lfingers 7.12502
lthumb 5.93283 17.0842
rfemur -42.4552 4.90773 13.0872
rtibia 9.86374
rfoot -6.43445 -11.4659
rtoes -46.011
lfemur -12.5678 -11.0394 -22.2251
ltibia 19.4048
lfoot -16.3825 -2.4962
ltoes -33.0046
384
root 7.40525 15.8443 20.8943 -157.623 -1.63589 178.278
lowerback -23.8177 -3.60562 -6.28313
upperback 1.13961 -3.22078 0.508419
thorax 15.1697 -2.0425 2.99637
lowerneck -3.09466 -3.18843 -1.33804
upperneck 15.6006 -4.21189 5.03043
head 5.3337 -1.51141 1.58311
rclavicle -9.34288e-015 1.88845e-014
rhumerus -46.6627 -31.7138 -64.6992
rradius 23.6147
rwrist 10.763
rhand -6.79162 -52.7441
rfingers 7.12502
rthumb 19.0712 -81.8291
lclavicle -9.34288e-015 1.88845e-014
lhumerus -27.5943 2.49256 79.72
lradius 31.0027
lwrist 0.15032
lhand -19.1465 -13.602
lfingers 7.12502
lthumb 7.16377 16.2567
rfemur -42.2086 4.75257 13.4296
rtibia 10.2323
rfoot -5.69247 -10.8881
rtoes -45.7567
lfemur -12.4143 -11.2595 -22.2031
ltibia 20.262
lfoot -16.3417 -2.41055
ltoes -34.3013
385
root 7.42922 15.8391 20.7621 -157.622 -1.71277 178.304
lowerback -23.931 -3.68152 -6.10624
upperback 1.08412 -3.37685 0.555735
thorax 15.1769 -2.10094 2.88837
lowerneck -3.0021 -3.20665 -1.53359
upperneck 15.6766 -4.21579 5.02899
head 5.34552 -1.52189 1.6163
rclavicle 5.91384e-015 5.56597e-015
rhumerus -46.8946 -31.8693 -64.4339
rradius 23.4307
rwrist 10.8814
rhand -7.96892 -52.4972
rfingers 7.12502
rthumb 17.9387 -81.6899
lclavicle 5.91384e-015 5.56597e-015
lhumerus -27.8971 2.59717 79.7203
lradius 30.9162
lwrist 0.0903462
lhand -20.4982 -13.1497
lfingers 7.12502
lthumb 5.85883 16.7493
rfemur -41.9802 4.56847 13.7898
rtibia 10.6323
rfoot -5.40279 -10.5235
rtoes -44.8214
lfemur -12.3423 -11.6652 -22.1422
ltibia 21.1576
lfoot -16.076 -2.39756
ltoes -33.4908
386
root 7.45079 15.8419 20.6341 -157.678 -1.72842 178.378
lowerback -23.8389 -3.70637 -5.8075
upperback 0.982579 -3.51456 0.592595
thorax 14.9981 -2.13785 2.71501
lowerneck -3.1672 -3.28194 -1.90409
upperneck 16.0722 -4.30228 5.172
head 5.51062 -1.5578 1.71638
rclavicle 7.95139e-016 3.97569e-015
rhumerus -46.8416 -31.1309 -64.9935
rradius 23.5099
rwrist 9.47348
rhand -9.45544 -52.8894
rfingers 7.12502
rthumb 16.508 -82.2071
lclavicle 7.95139e-016 3.97569e-015
lhumerus -28.2091 3.11907 79.5822
lradius 30.6342
lwrist -0.702268
lhand -21.5048 -13.015
lfingers 7.12502
lthumb 4.88692 16.9086
rfemur -41.7679 4.48456 14.1587
rtibia 11.1612
rfoot -5.55125 -10.2282
rtoes -43.035
lfemur -12.2681 -12.0317 -22.0604
ltibia 22.137
lfoot -15.8369 -2.22555
ltoes -34.2331
387
root 7.48477 15.8449 20.5011 -157.882 -1.61475 178.725
lowerback -23.5691 -3.59085 -5.3862
upperback 0.854728 -3.51312 0.650712
thorax 14.6643 -2.10252 2.55685
lowerneck -3.21688 -2.97825 -1.73873
upperneck 16.413 -3.83044 4.78696
head 5.59727 -1.32673 1.59757
rclavicle -6.4605e-016 -4.17448e-015
rhumerus -47.1083 -30.8911 -65.1213
rradius 23.4978
rwrist 9.0441
rhand -9.69113 -53.339
rfingers 7.12502
rthumb 16.2811 -82.6754
lclavicle -6.4605e-016 -4.17448e-015
lhumerus -28.5308 3.68207 79.3131
lradius 30.2293
lwrist -1.63075
lhand -20.9657 -13.7122
lfingers 7.12502
lthumb 5.40747 16.1988
rfemur -41.5258 4.98678 14.6607
rtibia 11.8727
rfoot -5.87993 -10.1819
rtoes -41.1907
lfemur -12.0912 -12.0851 -21.6401
ltibia 23.1677
lfoot -15.6212 -2.06292
ltoes -34.8139
388
root 7.52697 15.8486 20.3641 -158.056 -1.38235 179.182
lowerback -24.4581 -3.50491 -5.09464
upperback 1.41709 -3.40693 0.788991
thorax 15.8382 -2.04959 2.54426
lowerneck -3.47981 -2.86644 -1.77572
upperneck 15.9858 -3.71419 4.75556
head 5.50523 -1.30248 1.59453
rclavicle 9.98893e-015 -1.19271e-014
rhumerus -46.2792 -31.7186 -65.2865
rradius 23.1851
rwrist 9.77129
rhand -9.47687 -53.1692
rfingers 7.12502
rthumb 16.4874 -82.4887
lclavicle 9.98893e-015 -1.19271e-014
lhumerus -27.6953 4.08613 79.3413
lradius 29.7647
lwrist -1.45366
lhand -22.1777 -14.9678
lfingers 7.12502
lthumb 4.23715 14.9698
rfemur -41.4011 5.92564 15.106
rtibia 12.739
rfoot -6.41808 -10.4026
rtoes -39.648
lfemur -12.0813 -11.9456 -21.0721
ltibia 24.4406
lfoot -15.361 -1.90138
ltoes -35.1281
389
root 7.55988 15.8603 20.2318 -158.059 -1.09567 179.37
lowerback -23.89 -3.39472 -4.92931
upperback 0.903483 -3.39234 0.873342
thorax 14.8807 -2.02703 2.58437
lowerneck -2.95979 -2.83563 -1.99485
upperneck 16.2001 -3.61496 4.77886
head 5.48349 -1.2488 1.65229
rclavicle -4.37326e-015 3.77691e-015
rhumerus -47.098 -31.2723 -64.8669
rradius 23.0719
rwrist 9.81792
rhand -9.22544 -53.3411
rfingers 7.12502
rthumb 16.7294 -82.6403
lclavicle -4.37326e-015 3.77691e-015
lhumerus -28.8764 4.04991 79.3396
lradius 29.8067
lwrist -0.92112
lhand -22.3446 -14.3732
lfingers 7.12502
lthumb 4.076 15.5675
rfemur -41.4435 6.24431 15.4965
rtibia 13.6696
rfoot -7.01803 -10.2265
rtoes -38.544
lfemur -12.3438 -11.9207 -20.8725
ltibia 25.9492
lfoot -14.9878 -1.71997
ltoes -36.0725
390
root 7.58594 15.8788 20.1028 -158.113 -0.933342 179.524
lowerback -24.1343 -3.32214 -4.65548
upperback 0.96128 -3.35683 0.851726
thorax 15.0677 -1.99049 2.40576
lowerneck -2.78149 -2.8346 -1.89561
upperneck 16.0298 -3.6092 4.67959
head 5.39631 -1.25468 1.60628
rclavicle -4.19933e-014 -6.16232e-015
rhumerus -46.9294 -31.3565 -65.0622
rradius 22.8721
rwrist 9.5884
rhand -9.40195 -53.7535
rfingers 7.12502
rthumb 16.5595 -83.0669
lclavicle -4.19933e-014 -6.16232e-015
lhumerus -29.046 4.40902 79.1584
lradius 29.6208
lwrist -1.20489
lhand -21.9262 -13.8039
lfingers 7.12502
lthumb 4.48006 16.1287
rfemur -41.2417 6.2126 15.9775
rtibia 14.3593
rfoot -7.59571 -9.81574
rtoes -37.4843
lfemur -12.6145 -11.8877 -20.7244
ltibia 27.5203
lfoot -14.2901 -1.55527
ltoes -37.6429
